<svg width="16.666626" height="15.318726" viewBox="0 0 16.6666 15.3187" fill="none" xmlns="http://www.w3.org/2000/svg" xmlns:xlink="http://www.w3.org/1999/xlink">
	<desc>
			Created with Pixso.
	</desc>
	<defs/>
	<path id="Vector" d="M16.1019 2.02869C15.1031 0.744995 13.6995 0 12.3739 0C10.6239 0 9.88367 0.858765 8.66785 0.858765C7.41418 0.858765 6.46167 0.00244141 4.94836 0.00244141C3.46167 0.00244141 1.87878 0.933716 0.875122 2.52625C-0.535767 4.76868 -0.294312 8.98486 1.99219 12.576C2.81055 13.8611 3.9032 15.306 5.3324 15.3186C6.60437 15.3311 6.96289 14.4823 8.68616 14.4736C10.4093 14.4636 10.7361 15.3298 12.0056 15.316C13.436 15.3048 14.5885 13.7036 15.4069 12.4186C15.9934 11.4973 16.2117 11.0336 16.6666 9.99365C13.358 8.70239 12.8275 3.88 16.1019 2.02869Z" fill="#3C4EF3" fill-opacity="1.000000" fill-rule="nonzero"/>
</svg>
